<svg xmlns="http://www.w3.org/2000/svg" viewBox="0 0 1e3 109.83">
	<g stroke-linecap="round" stroke-linejoin="round" stroke-miterlimit="1">
		<text
			transform="matrix(5.7729 0 0 5.7729 -315.97 -685.25)"
			fill="#fff"
			font-family="BobloxClassic"
			font-size="12.217px"
			stroke="#f00"
			stroke-width="1.2126"
			style="font-variant-caps:normal;font-variant-east-asian:normal;font-variant-ligatures:normal;font-variant-numeric:normal;paint-order:stroke fill markers;shape-inside:url(#rect1);white-space:pre"
			xml:space="preserve"
		>
			<tspan x="55.15625" y="129.06793">Where's Shedletsky?</tspan>
		</text>
		<path
			d="m340.5 33.686c-0.21249 0.01419-0.42987 0.007051-0.63868 0.050781-0.12784 0.05192-0.16475 0.26208-0.02343 0.32227 0.26828 0.15248 0.54341 0.29569 0.82812 0.41406 0.13094 0.0069 0.25978-0.14432 0.20117-0.27148-0.0452-0.15228-0.022-0.34745-0.14843-0.46484-0.0618-0.04881-0.14353-0.051701-0.21875-0.050781zm446.06 0c-0.04881 0.002187-0.09837 0.009964-0.14453 0.005859-0.16215 0.01084-0.33208 0.003135-0.48828 0.052735-0.12276 0.06134-0.1323 0.25237-0.01953 0.33008 0.18146 0.13352 0.39273 0.21692 0.59179 0.32031 0.0909 0.0477 0.21955 0.09791 0.30078 0.00586 0.10883-0.11582 0.04364-0.28399 0.02344-0.41992-0.0142-0.09806-0.03318-0.20876-0.12695-0.26367-0.04025-0.028885-0.08791-0.033438-0.13672-0.03125zm-453.54 15.293c-0.1767 0.0086-0.15241 0.21698-0.16406 0.3418-0.0239 0.42832-0.07496 0.85884-0.06836 1.2871 0.0744 0.17986 0.31367 0.12992 0.46875 0.15234 0.91543 0.02293 1.8326 0.040361 2.748 0.019531 0.14624 0.02231 0.26957-0.16512 0.1543-0.27734-0.24089-0.19235-0.54178-0.29001-0.81055-0.4375-0.76193-0.36555-1.5186-0.7464-2.293-1.084-0.0116 0.0011-0.02356-0.004053-0.03516-0.001953zm446 0.015625c-0.20789 0.04463-0.14444 0.32227-0.17187 0.47656 9.3e-4 0.3618-0.06271 0.72537-0.03711 1.0859 0.089 0.23775 0.40849 0.17055 0.60742 0.19531 0.87055 0.01528 1.7437 0.043273 2.6133 0.001953 0.17041-0.01133 0.1656-0.24534 0.02344-0.30078-0.81532-0.45768-1.6719-0.83949-2.5137-1.2461-0.17342-0.0653-0.33698-0.18753-0.52149-0.21289z"
			fill="#f00"
			fill-rule="evenodd"
			stroke-width=".15468"
			style="paint-order:stroke fill markers"
		/>
		<path
			d="m941.58 26.179c-0.0519 0.05022 5e-3 0.13829-2e-3 0.20273 0.0695 0.54636 0.14031 1.0936 0.21512 1.6386 0.0567 0.05619 0.11816-0.0468 0.16344-0.0734 0.31685-0.29238 0.65122-0.57268 0.91734-0.91393 0.0918-0.09775 0.046-0.24669-0.0464-0.32538-0.27441-0.23706-0.64615-0.29861-0.97184-0.43676-0.0911-0.02901-0.18043-0.08044-0.27523-0.0919z"
			fill="#fff"
			fill-rule="evenodd"
			stroke-width=".10938"
			style="paint-order:stroke fill markers"
		/>
	</g>
</svg>
